# xmcd
#
# Track frame offsets:
#	150
#	13845
#	26910
#	47332
#	59162
#	70975
#	83872
#	100460
#	115577
#	136272
#	150890
#	167665
#	186665
#	199000
#	216045
#	240667
#	276772
#
# Disc length: 3962 seconds
#
# Revision: 1
# Processed by: cddbd v1.5.2PL0 Copyright (c) Steve Scherf et al.
# Submitted via: audiograbber 1.83.01
#
DISCID=f00f7811
DTITLE=Various Artist - Savoy Blues - 3
DYEAR=2003
DGENRE=Blues  Jazz
TTITLE0=Nappy Brown - The Right Time
TTITLE1=Big Maybelle - Ramblin' Blues
TTITLE2=Big Maybelle - Blues Early, Early (Parts 1&2)
TTITLE3=Lafayette Thomas - Please Come Back To Me
TTITLE4=Lafayette Thomas - Texarkana
TTITLE5=Memphis Slim - One Man's Mad
TTITLE6=Memphis Slim - Cold Blooded Woman
TTITLE7=John Lee Hooker - Sittin' Here Thinkin'
TTITLE8=John Lee Hooker - Sad And Lonesome
TTITLE9=Eddie Kirkland - Snake In The Grass
TTITLE10=Eddie Kirkland - When I First Started Hoboing
TTITLE11=Eddie Kirkland - Hard To Raise A Family Today
TTITLE12=Robert Lockwood, Jr - Dust My Broom
TTITLE13=Robert Lockwood, Jr - Forever On My Mind
TTITLE14=Robert Lockwood, Jr - Selfish Ways
TTITLE15=Charles Brown - I Put Myself Together
TTITLE16=Charles Brown - I've Got A Right To Cry
EXTD=
EXTT0=
EXTT1=
EXTT2=
EXTT3=
EXTT4=
EXTT5=
EXTT6=
EXTT7=
EXTT8=
EXTT9=
EXTT10=
EXTT11=
EXTT12=
EXTT13=
EXTT14=
EXTT15=
EXTT16=
PLAYORDER=
